<mxfile host="Electron" agent="Mozilla/5.0 (Windows NT 10.0; Win64; x64) AppleWebKit/537.36 (KHTML, like Gecko) draw.io/24.7.17 Chrome/128.0.6613.36 Electron/32.0.1 Safari/537.36" version="24.7.17">
  <diagram id="H9MePTeyyTVjSZgxPibb" name="Page-1">
    <mxGraphModel dx="1996" dy="1505" grid="1" gridSize="10" guides="1" tooltips="1" connect="1" arrows="1" fold="1" page="1" pageScale="1" pageWidth="850" pageHeight="1100" math="0" shadow="0">
      <root>
        <mxCell id="0" />
        <mxCell id="1" parent="0" />
        <mxCell id="AdRwhLXgjmp78MMJpz6Z-1" value="" style="rounded=1;whiteSpace=wrap;html=1;" vertex="1" parent="1">
          <mxGeometry y="30" width="850" height="170" as="geometry" />
        </mxCell>
        <mxCell id="AdRwhLXgjmp78MMJpz6Z-2" value="" style="rounded=1;whiteSpace=wrap;html=1;" vertex="1" parent="1">
          <mxGeometry x="120" y="240" width="600" height="80" as="geometry" />
        </mxCell>
        <mxCell id="AdRwhLXgjmp78MMJpz6Z-3" value="" style="rounded=1;whiteSpace=wrap;html=1;" vertex="1" parent="1">
          <mxGeometry x="120" y="350" width="600" height="490" as="geometry" />
        </mxCell>
        <mxCell id="AdRwhLXgjmp78MMJpz6Z-4" value="" style="rounded=1;whiteSpace=wrap;html=1;" vertex="1" parent="1">
          <mxGeometry x="120" y="880" width="600" height="80" as="geometry" />
        </mxCell>
        <mxCell id="AdRwhLXgjmp78MMJpz6Z-5" value="" style="rounded=0;whiteSpace=wrap;html=1;" vertex="1" parent="1">
          <mxGeometry y="1000" width="850" height="100" as="geometry" />
        </mxCell>
        <mxCell id="AdRwhLXgjmp78MMJpz6Z-6" value="&lt;font style=&quot;font-size: 80px;&quot;&gt;TrackIt&lt;/font&gt;" style="text;strokeColor=none;align=center;fillColor=none;html=1;verticalAlign=middle;whiteSpace=wrap;rounded=0;" vertex="1" parent="1">
          <mxGeometry x="255" y="80" width="340" height="60" as="geometry" />
        </mxCell>
        <mxCell id="AdRwhLXgjmp78MMJpz6Z-7" value="&lt;font style=&quot;font-size: 30px;&quot;&gt;Reports&lt;/font&gt;" style="text;strokeColor=none;align=center;fillColor=none;html=1;verticalAlign=middle;whiteSpace=wrap;rounded=0;fontSize=30;" vertex="1" parent="1">
          <mxGeometry x="130" y="250" width="580" height="60" as="geometry" />
        </mxCell>
        <mxCell id="AdRwhLXgjmp78MMJpz6Z-8" value="Time period: [ Month Dropdown ]" style="text;strokeColor=none;align=center;fillColor=none;html=1;verticalAlign=middle;whiteSpace=wrap;rounded=0;fontSize=30;" vertex="1" parent="1">
          <mxGeometry x="120" y="367" width="600" height="60" as="geometry" />
        </mxCell>
        <mxCell id="AdRwhLXgjmp78MMJpz6Z-9" value="&lt;span style=&quot;font-size: 20px;&quot;&gt;[ Graph ]&lt;/span&gt;&lt;div&gt;&lt;span style=&quot;font-size: 20px;&quot;&gt;Bar chart showing total spending per category or over time.&lt;/span&gt;&lt;/div&gt;" style="text;strokeColor=none;align=left;fillColor=none;html=1;verticalAlign=middle;whiteSpace=wrap;rounded=0;fontSize=30;" vertex="1" parent="1">
          <mxGeometry x="130" y="470" width="495" height="70" as="geometry" />
        </mxCell>
        <mxCell id="AdRwhLXgjmp78MMJpz6Z-11" value="&lt;font style=&quot;font-size: 25px;&quot;&gt;Expense Summary&lt;/font&gt;" style="text;strokeColor=none;align=left;fillColor=none;html=1;verticalAlign=middle;whiteSpace=wrap;rounded=0;fontSize=30;" vertex="1" parent="1">
          <mxGeometry x="123" y="589" width="495" height="70" as="geometry" />
        </mxCell>
        <mxCell id="AdRwhLXgjmp78MMJpz6Z-13" value="&lt;span style=&quot;font-size: 20px;&quot;&gt;[Home] [Categories]&amp;nbsp;&lt;/span&gt;&lt;span style=&quot;font-size: 20px;&quot;&gt;[Reports]&amp;nbsp;&lt;/span&gt;&lt;span style=&quot;font-size: 20px;&quot;&gt;[Settings]&lt;/span&gt;" style="text;strokeColor=none;align=center;fillColor=none;html=1;verticalAlign=middle;whiteSpace=wrap;rounded=0;fontSize=30;" vertex="1" parent="1">
          <mxGeometry x="172.5" y="885" width="495" height="70" as="geometry" />
        </mxCell>
        <mxCell id="AdRwhLXgjmp78MMJpz6Z-14" value="&lt;span style=&quot;font-size: 20px;&quot;&gt;Lorem Ipsum&lt;/span&gt;" style="text;strokeColor=none;align=center;fillColor=none;html=1;verticalAlign=middle;whiteSpace=wrap;rounded=0;fontSize=30;" vertex="1" parent="1">
          <mxGeometry x="172.5" y="1015" width="495" height="70" as="geometry" />
        </mxCell>
        <mxCell id="AdRwhLXgjmp78MMJpz6Z-15" value="" style="endArrow=none;html=1;rounded=0;exitX=0.004;exitY=0.203;exitDx=0;exitDy=0;entryX=0.992;entryY=0.203;entryDx=0;entryDy=0;entryPerimeter=0;exitPerimeter=0;" edge="1" parent="1" source="AdRwhLXgjmp78MMJpz6Z-3" target="AdRwhLXgjmp78MMJpz6Z-3">
          <mxGeometry width="50" height="50" relative="1" as="geometry">
            <mxPoint x="440" y="630" as="sourcePoint" />
            <mxPoint x="490" y="580" as="targetPoint" />
          </mxGeometry>
        </mxCell>
        <mxCell id="AdRwhLXgjmp78MMJpz6Z-16" value="" style="endArrow=none;dashed=1;html=1;rounded=0;entryX=0.998;entryY=0.426;entryDx=0;entryDy=0;entryPerimeter=0;exitX=0;exitY=0.426;exitDx=0;exitDy=0;exitPerimeter=0;" edge="1" parent="1">
          <mxGeometry width="50" height="50" relative="1" as="geometry">
            <mxPoint x="120" y="588.7399999999998" as="sourcePoint" />
            <mxPoint x="718.8000000000002" y="588.7399999999998" as="targetPoint" />
          </mxGeometry>
        </mxCell>
        <mxCell id="AdRwhLXgjmp78MMJpz6Z-17" value="" style="endArrow=none;dashed=1;html=1;dashPattern=1 3;strokeWidth=2;rounded=0;exitX=0.001;exitY=0.567;exitDx=0;exitDy=0;entryX=1.004;entryY=0.563;entryDx=0;entryDy=0;entryPerimeter=0;exitPerimeter=0;" edge="1" parent="1">
          <mxGeometry width="50" height="50" relative="1" as="geometry">
            <mxPoint x="120.59999999999991" y="661.8299999999999" as="sourcePoint" />
            <mxPoint x="722.4000000000001" y="659.8700000000003" as="targetPoint" />
          </mxGeometry>
        </mxCell>
        <mxCell id="AdRwhLXgjmp78MMJpz6Z-18" value="&lt;font style=&quot;font-size: 20px;&quot;&gt;Total Expenses: $500.00&lt;/font&gt;&lt;div&gt;&lt;font style=&quot;font-size: 20px;&quot;&gt;Average Daily Spending: $25.00&lt;/font&gt;&lt;/div&gt;&lt;div&gt;&lt;font style=&quot;font-size: 20px;&quot;&gt;Largest Category: Food ($150.00)&lt;/font&gt;&lt;/div&gt;" style="text;strokeColor=none;align=left;fillColor=none;html=1;verticalAlign=middle;whiteSpace=wrap;rounded=0;fontSize=30;" vertex="1" parent="1">
          <mxGeometry x="120" y="670" width="495" height="128" as="geometry" />
        </mxCell>
      </root>
    </mxGraphModel>
  </diagram>
</mxfile>
